<svg width="128" height="128" viewBox="0 0 128 128" fill="none" xmlns="http://www.w3.org/2000/svg">
  <!-- Background gradient -->
  <defs>
    <linearGradient id="bgGradient" x1="0%" y1="0%" x2="100%" y2="100%">
      <stop offset="0%" style="stop-color:#ea580c;stop-opacity:1" />
      <stop offset="100%" style="stop-color:#f59e0b;stop-opacity:1" />
    </linearGradient>
    <linearGradient id="shieldGradient" x1="0%" y1="0%" x2="0%" y2="100%">
      <stop offset="0%" style="stop-color:#ffffff;stop-opacity:1" />
      <stop offset="100%" style="stop-color:#ffffff;stop-opacity:0.9" />
    </linearGradient>
  </defs>
  
  <!-- Rounded square background -->
  <rect width="128" height="128" rx="28" fill="url(#bgGradient)"/>
  
  <!-- Shield icon -->
  <path d="M64 28C64 28 48 32 48 40C48 48 48 64 48 72C48 88 64 100 64 100C64 100 80 88 80 72C80 64 80 48 80 40C80 32 64 28 64 28Z" 
        fill="url(#shieldGradient)" 
        stroke="white" 
        stroke-width="2" 
        stroke-linejoin="round"/>
  
  <!-- Checkmark inside shield -->
  <path d="M56 64L61 69L72 56" 
        stroke="#ea580c" 
        stroke-width="4" 
        stroke-linecap="round" 
        stroke-linejoin="round"
        fill="none"/>
  
  <!-- Sparkle accent -->
  <circle cx="88" cy="40" r="3" fill="white" opacity="0.8"/>
  <circle cx="92" cy="48" r="2" fill="white" opacity="0.6"/>
</svg>
