<svg width="1200" height="630" xmlns="http://www.w3.org/2000/svg">
  <defs>
    <linearGradient id="grad6" x1="0%" y1="0%" x2="100%" y2="100%">
      <stop offset="0%" style="stop-color:#3B82F6;stop-opacity:1" />
      <stop offset="100%" style="stop-color:#10B981;stop-opacity:1" />
    </linearGradient>
  </defs>
  <rect width="1200" height="630" fill="url(#grad6)"/>
  
  <!-- Emotion faces -->
  <circle cx="350" cy="250" r="50" fill="white" opacity="0.9"/>
  <circle cx="330" cy="240" r="8" fill="#3B82F6"/>
  <circle cx="370" cy="240" r="8" fill="#3B82F6"/>
  <path d="M 330 270 Q 350 285, 370 270" fill="none" stroke="#3B82F6" stroke-width="5" stroke-linecap="round"/>
  
  <circle cx="500" cy="250" r="50" fill="white" opacity="0.8"/>
  <circle cx="480" cy="240" r="8" fill="#F97316"/>
  <circle cx="520" cy="240" r="8" fill="#F97316"/>
  <line x1="480" y1="275" x2="520" y2="275" stroke="#F97316" stroke-width="5" stroke-linecap="round"/>
  
  <circle cx="650" cy="250" r="50" fill="white" opacity="0.7"/>
  <circle cx="630" cy="240" r="8" fill="#EF4444"/>
  <circle cx="670" cy="240" r="8" fill="#EF4444"/>
  <path d="M 630 280 Q 650 265, 670 280" fill="none" stroke="#EF4444" stroke-width="5" stroke-linecap="round"/>
  
  <!-- Bars -->
  <rect x="320" y="340" width="100" height="20" rx="10" fill="white" opacity="0.9"/>
  <rect x="470" y="340" width="60" height="20" rx="10" fill="white" opacity="0.8"/>
  <rect x="620" y="340" width="40" height="20" rx="10" fill="white" opacity="0.7"/>
  
  <!-- Title -->
  <text x="600" y="480" font-family="Arial, sans-serif" font-size="52" font-weight="bold" fill="white" text-anchor="middle">Sentiment Analysis</text>
  <text x="600" y="540" font-family="Arial, sans-serif" font-size="32" fill="rgba(255,255,255,0.9)" text-anchor="middle">What Ratings Actually Mean</text>
</svg>
